<?xml version="1.0" standalone="no"?>
<!DOCTYPE svg PUBLIC "-//W3C//DTD SVG 20010904//EN"
 "http://www.w3.org/TR/2001/REC-SVG-20010904/DTD/svg10.dtd">
<svg version="1.0" xmlns="http://www.w3.org/2000/svg"
 width="400.000000pt" height="400.000000pt" viewBox="0 0 400.000000 400.000000"
 preserveAspectRatio="xMidYMid meet">
<g transform="translate(0.000000,400.000000) scale(0.100000,-0.100000)"
fill="#000000" stroke="none">
<path d="M1026 3348 c3 -10 1 -18 -5 -18 -6 0 -10 -3 -10 -7 3 -20 -2 -26 -11
-13 -8 12 -10 11 -10 -5 0 -12 -5 -26 -12 -33 -9 -9 -9 -15 0 -24 7 -7 12 -17
12 -22 0 -6 -5 -4 -10 4 -5 8 -10 10 -10 5 0 -37 100 -89 132 -69 6 4 8 3 4
-4 -4 -6 1 -10 11 -10 29 2 103 -22 103 -32 0 -6 7 -10 16 -10 10 0 14 -6 10
-15 -3 -8 4 -21 17 -30 13 -9 16 -15 7 -15 -11 0 -11 -3 -2 -12 7 -7 12 -24
12 -38 0 -15 2 -29 5 -32 6 -6 8 -1939 2 -1945 -3 -2 -3 -18 -1 -36 3 -17 -3
-49 -11 -70 -8 -21 -13 -42 -10 -48 3 -5 0 -6 -8 -3 -8 3 -18 0 -23 -7 -4 -8
-3 -10 4 -5 7 4 12 3 12 -3 0 -15 -18 -23 -25 -11 -8 13 -25 3 -25 -13 0 -7 4
-6 11 3 9 13 10 13 6 0 -2 -8 -13 -16 -25 -18 -12 -2 -22 -8 -22 -14 0 -6 -16
-9 -39 -6 -22 2 -37 0 -35 -4 5 -7 -28 -12 -78 -11 -10 0 -18 -6 -18 -12 0 -7
-10 -25 -22 -41 -13 -15 -17 -25 -10 -20 6 4 12 3 12 -3 0 -5 -5 -11 -11 -13
-7 -2 -7 -11 0 -28 5 -14 10 -19 10 -11 1 8 8 4 20 -10 l19 -24 609 -2 c507
-1 625 1 708 14 55 8 109 16 120 18 11 1 33 8 49 14 16 7 35 10 42 7 8 -3 17
1 21 8 5 7 26 19 48 26 22 7 54 21 71 31 36 22 48 24 38 7 -5 -7 -3 -8 5 -4 7
5 10 15 7 23 -4 11 -2 13 9 9 8 -3 15 -1 15 5 0 6 10 8 23 5 12 -3 16 -3 10 0
-7 3 -13 10 -13 15 0 5 6 8 13 7 6 -2 11 3 9 10 -1 8 2 11 7 8 5 -4 20 4 33
16 48 46 76 66 84 60 4 -4 4 -2 1 5 -10 16 3 43 20 43 8 0 12 4 9 9 -3 5 9 23
27 41 17 18 26 30 20 26 -7 -4 -13 -2 -13 3 0 6 4 11 10 11 5 0 21 37 36 82
36 113 44 275 19 383 -10 42 -22 78 -27 81 -4 3 -8 12 -8 21 0 8 -9 27 -20 43
-11 15 -17 30 -13 34 3 3 2 6 -3 6 -15 0 -46 59 -38 72 4 6 3 8 -4 4 -5 -3
-38 23 -72 59 -35 35 -71 67 -81 70 -11 4 -17 11 -14 16 4 5 -2 12 -12 16 -10
3 -27 13 -37 22 -16 13 -18 13 -12 1 5 -9 2 -8 -7 2 -8 10 -18 14 -22 10 -5
-4 -6 1 -2 10 6 17 -17 33 -34 22 -5 -3 -9 -2 -9 3 0 9 -86 46 -107 46 -7 0
-13 5 -13 10 0 5 -6 7 -14 4 -8 -3 -17 1 -20 9 -3 8 -11 14 -18 14 -9 0 -8 -3
2 -10 24 -15 3 -12 -38 7 -20 9 -44 17 -54 17 -9 1 -20 5 -25 10 -5 5 -3 6 5
2 11 -7 17 5 13 27 -1 5 3 6 9 2 5 -3 25 6 45 20 19 15 39 24 44 20 7 -3 8 0
5 9 -4 11 0 16 14 16 11 0 27 11 36 25 9 14 22 23 28 19 7 -4 8 -3 4 4 -4 7 0
12 11 13 12 0 13 2 5 6 -10 4 -7 9 10 17 12 6 24 17 24 24 3 25 6 26 14 7 8
-19 9 -19 9 -1 1 11 12 34 26 52 14 18 25 37 25 43 0 6 6 10 13 9 7 -2 11 5 9
17 -2 11 -1 17 4 13 8 -9 54 85 54 110 0 15 2 15 10 2 6 -9 10 -10 10 -3 0 6
3 20 6 30 5 15 4 16 -6 3 -10 -13 -11 -12 -6 3 3 10 6 21 6 23 0 3 5 2 11 -2
8 -5 8 -1 0 14 -6 12 -7 23 -2 26 11 7 11 164 -1 195 -6 16 -4 28 4 39 8 10 8
13 2 9 -12 -7 -29 19 -25 41 1 6 -3 12 -9 12 -5 0 -9 3 -8 8 3 12 -25 62 -34
62 -5 0 -6 5 -3 10 3 6 -1 13 -9 16 -9 3 -16 15 -16 25 0 10 -3 18 -7 17 -14
-4 -52 35 -46 46 3 6 3 8 -2 4 -4 -4 -16 2 -26 13 -10 12 -23 18 -28 14 -7 -4
-8 0 -4 11 4 11 2 15 -4 11 -5 -3 -25 5 -43 18 -18 14 -49 30 -68 36 -26 9
-31 14 -21 21 10 7 7 7 -8 3 -14 -4 -23 -2 -23 4 0 6 -5 11 -11 11 -5 0 -7 -5
-3 -11 3 -6 -8 -4 -25 5 -27 14 -122 40 -179 49 -12 2 -25 6 -28 10 -10 10
-26 9 -20 -1 2 -4 -11 -6 -30 -4 -22 3 -31 8 -27 16 5 8 3 8 -8 0 -10 -8 -43
-8 -109 -2 -52 5 -282 7 -510 6 -359 -3 -417 -1 -428 12 -10 13 -11 13 -6 -2z
m1197 -77 c291 -65 472 -205 527 -411 17 -63 15 -189 -5 -257 -57 -198 -278
-427 -482 -498 -35 -13 -66 -25 -69 -27 -2 -3 26 -8 63 -11 198 -17 418 -116
561 -250 154 -146 235 -339 218 -521 -33 -358 -289 -582 -726 -636 -50 -6
-331 -10 -687 -10 l-603 0 -6 25 c-3 14 -3 36 0 50 6 22 12 25 51 25 130 0
212 50 242 148 17 53 18 132 18 1072 0 1127 2 1091 -64 1160 -39 41 -81 57
-179 67 -55 5 -63 9 -68 29 -4 13 -3 36 0 50 l7 25 552 -4 c523 -4 557 -5 650
-26z"/>
<path d="M1700 2639 l0 -534 142 6 c105 5 159 12 203 27 180 62 284 171 326
342 19 78 17 289 -4 367 -41 156 -129 249 -284 299 -32 11 -102 18 -215 21
l-168 5 0 -533z m303 486 c61 -7 157 -43 157 -57 0 -6 3 -8 7 -5 3 4 15 -1 26
-10 15 -13 18 -14 12 -3 -5 8 5 2 21 -15 20 -20 27 -34 21 -42 -9 -13 -8 -14
15 -17 7 0 25 -23 39 -50 24 -45 34 -78 45 -158 2 -14 4 -30 5 -35 1 -4 1 -21
0 -38 -1 -24 -3 -27 -12 -15 -9 12 -9 11 -3 -5 9 -25 13 -116 4 -110 -3 2 -5
-10 -4 -26 4 -62 -45 -200 -60 -167 -3 7 -3 3 0 -10 5 -19 -6 -34 -57 -82 -44
-41 -66 -56 -71 -47 -6 9 -8 9 -8 -1 0 -7 -4 -10 -10 -7 -6 4 -7 -1 -3 -11 4
-12 3 -15 -5 -10 -7 4 -12 2 -12 -3 0 -6 -5 -11 -11 -11 -5 0 -7 6 -3 13 4 6
-1 5 -12 -4 -22 -19 -167 -61 -157 -46 4 6 1 7 -8 2 -7 -5 -50 -9 -95 -10 -65
0 -81 3 -82 15 -6 83 1 956 7 964 10 12 168 12 254 1z"/>
<path d="M1787 1983 l-88 -4 3 -507 c4 -572 2 -560 81 -628 62 -53 129 -69
282 -69 144 0 207 12 302 56 217 102 319 367 248 645 -57 221 -244 414 -465
480 -49 14 -210 35 -250 32 -14 -1 -65 -4 -113 -5z m301 -44 c13 1 20 -4 17
-9 -3 -5 0 -7 8 -4 17 6 178 -67 171 -78 -3 -4 2 -5 10 -2 8 3 24 -4 35 -15
12 -12 23 -21 26 -21 3 0 15 -9 28 -22 l22 -22 -30 18 -30 17 25 -20 c14 -11
33 -27 43 -35 12 -12 17 -12 17 -3 0 8 4 7 10 -3 14 -21 12 -33 -2 -24 -8 4
-10 3 -5 -2 5 -5 11 -9 15 -9 15 0 62 -51 62 -68 0 -11 4 -15 11 -11 7 4 10 1
7 -7 -3 -8 5 -34 17 -59 12 -25 20 -51 17 -59 -3 -9 0 -11 8 -6 9 5 10 2 5
-15 -5 -15 -4 -20 4 -16 7 5 10 -1 7 -16 -2 -13 0 -27 4 -33 11 -15 17 -85 7
-78 -5 3 -6 -5 -2 -18 9 -27 8 -81 -1 -119 -3 -14 -7 -32 -8 -42 -1 -9 -9 -24
-17 -34 -11 -14 -11 -16 -1 -10 8 5 2 -13 -12 -38 -15 -26 -23 -52 -20 -58 4
-6 2 -8 -4 -4 -10 6 -28 -30 -24 -47 1 -5 -2 -6 -8 -2 -6 3 -7 11 -4 17 4 7 2
8 -5 4 -6 -4 -9 -11 -6 -15 2 -5 -3 -17 -11 -27 -9 -10 -13 -14 -10 -8 6 12
-23 29 -32 19 -3 -3 0 -5 6 -5 7 0 12 -7 12 -16 0 -14 -2 -15 -16 -3 -15 12
-16 11 -10 -9 6 -16 3 -24 -11 -29 -10 -3 -25 -12 -34 -19 -8 -8 -28 -15 -42
-16 -15 -1 -27 -6 -27 -10 0 -4 -8 -8 -18 -8 -10 0 -23 -5 -29 -11 -6 -6 -70
-13 -155 -16 -113 -4 -152 -2 -187 10 -24 9 -50 13 -57 10 -8 -3 -14 -1 -14 4
0 5 -6 17 -13 28 -11 14 -16 15 -22 5 -6 -9 -4 -11 5 -5 9 5 11 4 6 -4 -4 -6
-12 -9 -17 -5 -5 3 -7 10 -4 15 4 5 1 9 -5 9 -6 0 -22 23 -35 52 l-24 51 0
478 -1 478 53 4 c28 2 102 2 162 0 61 -3 120 -4 133 -4z"/>
</g>
</svg>
