<?xml version="1.0" encoding="UTF-8"?>
<svg id="Layer_1" xmlns="http://www.w3.org/2000/svg" xmlns:xlink="http://www.w3.org/1999/xlink" viewBox="0 0 600 600">
  <defs>
    <style>
      .cls-1 {
        fill: none;
      }

      .cls-2, .cls-3, .cls-4, .cls-5, .cls-6, .cls-7, .cls-8 {
        fill-rule: evenodd;
      }

      .cls-2, .cls-9 {
        fill: #fff;
      }

      .cls-10 {
        fill: #34bcb3;
      }

      .cls-3 {
        fill: #4bc0ba;
      }

      .cls-4 {
        fill: #651b37;
      }

      .cls-5 {
        fill: #a5204b;
      }

      .cls-6 {
        fill: #651c37;
      }

      .cls-7 {
        fill: #ffeeab;
      }

      .cls-11 {
        clip-path: url(#clippath);
      }

      .cls-8 {
        fill: #23afa6;
      }
    </style>
    <clipPath id="clippath">
      <path class="cls-1" d="M46.0114777,300.0012076c0,140.276615,113.7133936,253.9870361,253.9838778,253.9870361,140.2768007,0,253.9931668-113.7104211,253.9931668-253.9870361,0-140.2734567-113.7163661-253.9868503-253.9931668-253.9868503-140.2704842,0-253.9838778,113.7133936-253.9838778,253.9868503"/>
    </clipPath>
  </defs>
  <path class="cls-9" d="M300.0001858,16.7240877c156.448109,0,283.2771198,126.8262242,283.2771198,283.2774914,0,156.4482947-126.8290108,283.2743331-283.2771198,283.2743331-156.4484805,0-283.2774914-126.8260384-283.2774914-283.2743331C16.7226944,143.5503119,143.5517053,16.7240877,300.0001858,16.7240877"/>
  <path class="cls-4" d="M46.0096199,300.002508c0,140.276615,113.713022,253.9900086,253.9898228,253.9900086,140.2734567,0,253.9898228-113.7133936,253.9898228-253.9900086S440.2728994,46.009527,299.9994427,46.009527c-140.2768007,0-253.9898228,113.7163661-253.9898228,253.992981"/>
  <g class="cls-11">
    <path class="cls-5" d="M187.5582628,561.063818c-24.9593923-27.0076044-40.1906594-63.0797319-40.1906594-102.6550917,0-84.0363325,67.940822-151.9830994,151.9801269-151.9830994,83.579688,0,151.52051,67.9467669,151.52051,151.9830994,0,39.5753598-15.2312671,75.6474872-40.1416138,102.6550917h-223.1683638Z"/>
    <path class="cls-7" d="M299.1188508,321.8612508c75.2883767,0,136.3193391,61.031334,136.3193391,136.3197106,0,75.2885624-61.0309624,136.3197106-136.3193391,136.3197106-75.2887482,0-136.3197106-61.0311482-136.3197106-136.3197106,0-75.2883767,61.0309624-136.3197106,136.3197106-136.3197106"/>
    <path class="cls-3" d="M407.8894115,272.9906307s-25.1845563,12.324385-30.6754368,12.324385c-5.497197,0-31.055912-12.324385-31.055912-12.324385v32.2735067c23.2881255,6.8060092,44.3298128,19.4315418,61.7313488,35.244111v-67.5176177Z"/>
    <path class="cls-5" d="M371.7034016,433.2327159c17.955157-22.3657334,31.843986-48.1406949,40.5373228-76.1985074,24.015264,26.8799743,38.6286306,62.3949509,38.6286306,101.3739605,0,15.5781163-2.3590202,30.6113431-6.738943,44.7650927l-72.4270104-69.9405459Z"/>
    <path class="cls-5" d="M157.5486575,513.0425789c-6.5747145-16.9538089-10.1817972-35.38103-10.1817972-54.6360819,0-84.0363325,67.940822-151.9801269,151.9801269-151.9801269,42.159544,0,80.3411906,17.2857957,107.8297765,45.2065033-29.1598527,94.4826788-117.1774266,163.1326188-221.2295754,163.1326188-9.6155432,0-19.0906375-.5844604-28.3985309-1.7229133"/>
    <path class="cls-6" d="M339.6535727,490.0366515c-.3656128-1.4670958-.5573366-2.9980995-.5573366-4.5777773,0-10.4706834,8.501613-18.9598492,18.9873445-18.9598492,10.4890755,0,18.9932894,8.4891658,18.9932894,18.9598492,0,7.2351584-4.0633556,13.5265601-10.032431,16.7226999-2.0513704-8.2610294-9.5271124-14.3820719-18.4329803-14.3820719-3.2418414,0-6.288615.8096244-8.957886,2.2371493"/>
    <path class="cls-6" d="M363.8713357,502.2176152c-13.1096723,0-27.8267035-16.9630978-26.1740146-19.3949433,1.6530605-2.4320313,16.0290016,4.2673408,25.336895,4.2673408,10.1052563,0,25.6805859-6.6720626,27.308752-4.3405377,1.6285376,2.3317107-12.9361549,19.4681402-26.4716324,19.4681402"/>
    <path class="cls-6" d="M126.8598446,401.9338052c0-24.9681239,19.9916651-42.0012604,44.5913895-37.7552841,0,0,87.8867855,12.6532136,117.7191578,29.6192839,4.8822689.0365984,14.7775951.0365984,19.894317,0,30.1184717-17.0970444,115.0342814-29.4883098,115.0342814-29.4883098,24.6123574-4.1913573,44.5672382,12.6591585,44.5672382,37.62431v218.3806563H126.8598446v-218.3806563Z"/>
    <path class="cls-2" d="M126.8598446,395.3001987c0-15.5628824,12.45796-26.203925,27.8110981-23.6563392,0,0,104.6670769,15.5569375,134.4994492,32.5534755,4.8822689-.0213646,14.7775951-.0213646,19.894317,0,30.1184717-17.1275121,131.8086279-32.4743337,131.8086279-32.4743337,15.349794-2.5416408,27.7928917,8.014315,27.7928917,23.5771974v225.0099898H126.8598446v-225.0099898Z"/>
    <path class="cls-3" d="M299.1188508,620.3120463v-205.2646675l-165.9298914-30.2890168c-13.0702872-2.468444-23.2821806,6.5351436-23.0570166,19.894317l-.4533005,215.6593673h189.4402084Z"/>
    <path class="cls-8" d="M299.1188508,620.3120463v-205.7151813l165.9295198-30.2919892c13.2438047-2.4654715,23.9639891,6.5319854,23.9639891,19.894317v216.1128535h-189.8935089Z"/>
    <rect class="cls-10" x="274.2538342" y="410.5247778" width="49.2823062" height="209.7878258"/>
  </g>
</svg>