<svg xmlns="http://www.w3.org/2000/svg" viewBox="0 0 2500 2500">
  <g transform="translate(0,2500) scale(0.1,-0.1)" fill="#000" stroke="none">
    <path d="M11995 24294 c-458 -27 -628 -41 -945 -80 -1327 -161 -2626 -551
-3815 -1147 -961 -481 -1819 -1065 -2634 -1794 -226 -202 -672 -648 -874 -874
-1764 -1972 -2795 -4379 -2997 -6999 -41 -534 -41 -1266 0 -1800 158 -2050
824 -3973 1963 -5672 620 -925 1395 -1784 2250 -2496 1848 -1540 4090 -2470
6477 -2686 398 -36 513 -41 1080 -41 567 0 682 5 1080 41 2387 216 4629 1146
6477 2686 528 439 1072 983 1511 1511 1580 1896 2512 4192 2702 6657 41 534
41 1266 0 1800 -158 2050 -824 3973 -1963 5672 -620 925 -1395 1784 -2250
2496 -1460 1217 -3170 2056 -5019 2462 -557 123 -1093 198 -1773 251 -132 10
-1142 20 -1270 13z m1070 -1225 c834 -41 1696 -192 2510 -438 1088 -329 2147
-851 3074 -1514 498 -357 866 -671 1332 -1136 465 -466 779 -834 1136 -1332
335 -468 593 -900 867 -1449 644 -1293 1001 -2651 1086 -4130 7 -107 12 -364
12 -570 0 -397 -10 -626 -43 -985 -142 -1567 -641 -3091 -1457 -4455 -197
-330 -475 -736 -715 -1045 -104 -133 -359 -440 -441 -530 l-45 -50 -1 1360 c0
1355 -3 1480 -36 1609 -28 114 -105 255 -185 340 -167 178 -352 256 -611 256
-71 0 -128 4 -128 9 0 21 -109 172 -169 234 -199 207 -503 312 -803 278 -325
-37 -1674 -277 -2398 -427 -1460 -303 -2480 -593 -3037 -865 l-141 -69 -410 0
-410 0 -129 64 c-736 367 -2502 800 -4853 1191 -589 97 -712 115 -808 115
-333 0 -628 -151 -801 -410 -33 -49 -62 -97 -65 -108 -7 -21 -43 -32 -106 -32
-61 0 -190 -37 -275 -79 -194 -96 -320 -254 -392 -488 l-26 -88 -8 -1400 c-5
-770 -10 -1410 -11 -1422 -2 -17 -22 1 -103 95 -758 880 -1364 1876 -1802
2961 -374 928 -621 1952 -712 2956 -33 356 -43 597 -43 985 0 911 99 1716 318
2590 284 1135 764 2228 1408 3210 287 436 604 849 964 1255 149 168 669 688
837 837 940 834 1966 1472 3114 1935 679 274 1461 493 2181 612 778 129 1520
170 2325 130z"/>
    <path d="M14420 12953 l0 -669 93 -29 c842 -263 1653 -722 2369 -1342 59 -51
109 -93 112 -93 4 0 6 630 6 1400 0 947 -3 1400 -10 1400 -6 0 -46 -18 -90
-40 -117 -59 -501 -232 -680 -307 -187 -78 -397 -149 -466 -158 -114 -16 -397
85 -978 347 -110 49 -225 102 -255 118 -31 15 -66 31 -78 34 l-23 7 0 -668z"/>
    <path d="M12020 12209 c-1544 -116 -2957 -767 -4044 -1864 -204 -206 -494
-543 -478 -556 4 -3 162 -32 352 -63 842 -141 1761 -330 2420 -497 754 -193
1291 -374 1673 -565 l128 -64 390 0 390 0 162 79 c591 289 1586 577 2942 851
361 73 915 175 1230 226 127 21 234 41 238 44 13 11 -240 305 -439 509 -420
431 -840 762 -1349 1061 -181 106 -576 301 -780 385 -607 251 -1266 404 -1955
455 -155 11 -724 11 -880 -1z"/>
  </g>
</svg>
