<svg xmlns="http://www.w3.org/2000/svg" viewBox="700 1098 1387 1387">
  <g transform="translate(0,2500) scale(0.1,-0.1)" fill="#000" stroke="none">
    <path d="M12020 12209 c-1544 -116 -2957 -767 -4044 -1864 -204 -206 -494
-543 -478 -556 4 -3 162 -32 352 -63 842 -141 1761 -330 2420 -497 754 -193
1291 -374 1673 -565 l128 -64 390 0 390 0 162 79 c591 289 1586 577 2942 851
361 73 915 175 1230 226 127 21 234 41 238 44 13 11 -240 305 -439 509 -420
431 -840 762 -1349 1061 -181 106 -576 301 -780 385 -607 251 -1266 404 -1955
455 -155 11 -724 11 -880 -1z"/>
    <path d="M19450 8994 c-120 -14 -6038 -1100 -6008 -1102 l38 -3 2 -2963 3
-2962 205 23 c1372 152 2745 591 3950 1263 957 534 1873 1250 2607 2038 l123
133 -2 1442 -3 1442 -23 80 c-104 368 -386 597 -752 609 -58 3 -121 2 -140 0z"/>
  </g>
</svg>
